<?xml version="1.0" encoding="utf-8"?>
<svg version="1.0" xmlns="http://www.w3.org/2000/svg" width="310.000000pt" height="310.000000pt" viewBox="0 0 310.000000 310.000000" preserveAspectRatio="xMidYMid meet">
  <g transform="translate(0.000000,310.000000) scale(0.100000,-0.100000)" fill="#000000" stroke="none">
    <path d="M0 1550 l0 -1550 1550 0 1550 0 0 1550 0 1550 -1550 0 -1550 0 0 -1550z m1688 1283 l2 -193 -140 0 -140 0 0 -85 0 -85 295 0 295 0 0 -125 0 -125 -315 0 -315 0 0 105 0 105 -95 0 -95 0 0 -83 c0 -71 3 -84 20 -95 22 -14 27 -61 8 -80 -21 -21 -66 -14 -84 13 -15 23 -15 27 0 50 12 17 16 48 16 110 l0 85 -150 0 -150 0 0 -190 0 -190 410 0 410 0 0 -610 0 -610 -115 0 -115 0 0 -85 0 -85 170 0 170 0 2 693 3 692 246 3 246 2 7 92 c11 167 8 304 -9 318 -18 15 -20 61 -3 78 15 15 61 15 76 0 17 -17 15 -63 -3 -78 -12 -10 -15 -53 -17 -234 l-3 -221 -247 -3 -248 -2 -2 -693 -3 -692 -212 -3 -213 -2 0 110 0 110 -90 0 -90 0 0 495 0 495 110 0 110 0 0 -475 0 -475 90 0 90 0 0 570 0 570 -405 0 -405 0 0 230 0 230 170 0 170 0 0 105 0 105 115 0 115 0 0 175 0 176 158 -3 157 -3 3 -192z m-1360 -2520 c-2 -14 -15 -19 -51 -21 -48 -3 -48 -4 -45 -35 3 -30 6 -32 46 -35 28 -2 42 -8 42 -18 0 -10 -12 -14 -45 -14 l-45 0 0 -55 c0 -42 -3 -55 -15 -55 -13 0 -15 21 -15 125 l0 125 66 0 c57 0 65 -2 62 -17z m198 -98 c24 -60 44 -115 44 -122 0 -27 -32 -12 -46 22 -14 33 -17 35 -63 35 -46 0 -49 -2 -57 -32 -7 -24 -17 -34 -33 -36 -19 -3 -23 0 -17 15 4 10 26 66 49 126 55 141 64 140 123 -8z m132 -7 c-3 -108 -5 -123 -20 -126 -16 -3 -18 8 -18 122 0 120 1 126 20 126 20 0 20 -5 18 -122z m220 105 c-2 -12 -14 -19 -36 -21 l-32 -3 0 -105 c0 -97 -1 -104 -20 -104 -19 0 -20 7 -20 104 l0 105 -32 3 c-22 2 -34 9 -36 21 -3 15 6 17 88 17 82 0 91 -2 88 -17z m82 -39 l0 -55 53 3 52 3 3 53 c3 44 6 52 23 52 19 0 19 -6 17 -122 -3 -108 -5 -123 -20 -126 -15 -3 -18 5 -18 52 l0 56 -55 0 -55 0 0 -56 c0 -47 -3 -55 -17 -52 -16 3 -18 18 -21 126 -2 117 -2 122 18 122 18 0 20 -6 20 -56z m485 43 c29 -22 10 -35 -44 -29 -43 4 -53 1 -75 -21 -35 -35 -35 -89 -1 -123 22 -22 33 -25 77 -22 58 3 77 -15 33 -32 -87 -33 -175 25 -175 115 0 47 23 91 58 109 34 19 102 20 127 3z m249 -6 c39 -26 55 -57 56 -109 0 -34 -6 -49 -32 -77 -101 -109 -261 13 -193 145 30 58 113 77 169 41z m210 -68 l56 -88 0 88 c0 80 2 87 20 87 19 0 20 -7 20 -125 0 -159 -11 -164 -90 -38 l-55 87 -3 -87 c-3 -79 -5 -87 -22 -87 -19 0 -20 7 -20 125 0 116 1 125 19 125 13 0 37 -28 75 -87z m260 0 l56 -88 0 88 c0 80 2 87 20 87 19 0 20 -7 20 -125 0 -159 -11 -164 -90 -38 l-55 87 -3 -87 c-3 -79 -5 -87 -22 -87 -19 0 -20 7 -20 125 0 116 1 125 19 125 13 0 37 -28 75 -87z m296 67 c0 -17 -7 -20 -45 -20 -45 0 -45 0 -45 -35 0 -35 0 -35 45 -35 33 0 45 -4 45 -15 0 -11 -12 -15 -45 -15 -45 0 -45 0 -45 -35 0 -35 0 -35 45 -35 38 0 45 -3 45 -20 0 -18 -7 -20 -65 -20 l-65 0 0 125 0 125 65 0 c58 0 65 -2 65 -20z m234 10 c16 -6 24 -15 20 -24 -4 -11 -18 -13 -57 -9 -47 5 -55 2 -76 -21 -36 -38 -34 -91 4 -123 25 -22 36 -25 76 -20 54 7 74 -13 33 -32 -81 -36 -184 28 -184 115 0 37 36 94 70 111 30 15 79 17 114 3z m226 -10 c0 -16 -7 -20 -30 -20 l-29 0 -3 -102 c-3 -89 -5 -103 -20 -106 -16 -3 -18 7 -18 102 l0 106 -35 0 c-28 0 -35 4 -35 20 0 18 7 20 85 20 78 0 85 -2 85 -20z" style="fill: rgb(166, 148, 0);"/>
    <path d="M1410 2830 l0 -150 115 0 115 0 0 150 0 150 -115 0 -115 0 0 -150z" style="fill: rgb(166, 148, 0);"/>
    <path d="M1182 2558 l3 -83 90 0 90 0 3 83 3 82 -96 0 -96 0 3 -82z" style="fill: rgb(166, 148, 0);"/>
    <path d="M1410 2345 l0 -85 270 0 270 0 0 85 0 85 -270 0 -270 0 0 -85z" style="fill: rgb(166, 148, 0);"/>
    <path d="M1260 1325 l0 -456 63 3 62 3 3 453 2 452 -65 0 -65 0 0 -455z" style="fill: rgb(166, 148, 0);"/>
    <path d="M446 231 c-21 -53 -21 -51 14 -51 34 0 37 11 16 60 l-13 32 -17 -41z" style="fill: rgb(166, 148, 0);"/>
    <path d="M1571 264 c-29 -37 -27 -89 4 -119 51 -52 135 -15 135 60 0 76 -94 116 -139 59z" style="fill: rgb(166, 148, 0);"/>
  </g>
</svg>