<svg xmlns="http://www.w3.org/2000/svg" xmlns:xlink="http://www.w3.org/1999/xlink" version="1.1" x="0px" y="0px" viewBox="1.0 1.0 95.0 95.0" style="enable-background:new 0 0 100 100;" xml:space="preserve"><path d="M84,60.3h-1.5V46.7c0-2.9-0.4-5.6-1.1-8.3c0.7-0.9,0.9-2.1,0.5-3.3c-1.7-4.7-4.4-8.9-7.9-12.4c-6.4-6.4-14.9-9.9-24-9.9  c-14.2,0-27.1,9-31.9,22.4c-0.4,1.2-0.2,2.4,0.5,3.3c-0.7,2.6-1.1,5.4-1.1,8.3v13.6H16c-3.3,0-6,2.7-6,6v9.2c0,3.3,2.7,6,6,6h2  c1.1,3.4,4.2,5.8,7.9,5.8c4.6,0,8.4-3.8,8.4-8.4v-16c0-4.6-3.8-8.4-8.4-8.4c-1.5,0-2.9,0.4-4.1,1.1v-8.9c0-2.4,0.3-4.7,0.9-7  c0.9-0.4,1.7-1.1,2.1-2.1C28.7,27,38.8,19.9,50,19.9c7.1,0,13.8,2.8,18.9,7.8c2.8,2.8,4.9,6.1,6.2,9.8c0.4,1,1.2,1.7,2.1,2.1  c0.6,2.2,0.9,4.6,0.9,7v8.9c-1.2-0.7-2.6-1.1-4.1-1.1c-4.6,0-8.4,3.8-8.4,8.4v16c0,4.6,3.8,8.4,8.4,8.4c3.7,0,6.9-2.5,7.9-5.8h2  c3.3,0,6-2.7,6-6v-9.2C90,63,87.3,60.3,84,60.3z"/></svg>