<svg xmlns="http://www.w3.org/2000/svg" version="1.1" viewBox="1.0 1.0 95.0 95.0">
 <path d="m93.75 6.25h-81.25v-6.25h-6.25v100h6.25v-87.5h9.375v59.375h62.5v-59.375h9.375zm-20.312 54.688h-40.625v-31.25h17.188c1.2031 0 2.293 0.46875 3.125 1.2188 0.83203-0.75 1.9219-1.2188 3.125-1.2188h17.188zm4.6875-42.188h-50v-6.25h50z"/>
 <path d="m54.688 34.375v23.438h15.625v-25h-14.062c-0.85938 0-1.5625 0.70312-1.5625 1.5625zm3.125 3.125h9.375v3.125h-9.375zm0 6.25h9.375v3.125h-9.375zm0 6.25h9.375v3.125h-9.375z"/>
 <path d="m50 32.812h-14.062v25h15.625v-23.438c0-0.85938-0.70312-1.5625-1.5625-1.5625zm-1.5625 20.312h-9.375v-3.125h9.375zm0-6.25h-9.375v-3.125h9.375zm0-6.25h-9.375v-3.125h9.375z"/></svg>