<svg xmlns="http://www.w3.org/2000/svg" version="1.1" viewBox="0.0 0.0 100.0 100.0">
 <path d="m75.082 24.832c-1.9961-0.007812-3.9102 0.78516-5.3203 2.1992l-29.91 29.91-9.8047-9.8047v0.003906c-2.875-2.8672-7.5234-2.8672-10.398 0l-0.23828 0.23828c-2.8672 2.8711-2.8672 7.5234 0 10.398l15.238 15.242c2.875 2.8633 7.5273 2.8633 10.402 0l35.348-35.352c2.1562-2.1523 2.8008-5.3867 1.6367-8.1992-1.168-2.8086-3.9102-4.6406-6.9531-4.6367zm-0.71875-14.418c0.72656-1.0547 2.168-1.3203 3.2227-0.59375 4.9023 3.375 9.1484 7.6172 12.523 12.52 0.73047 1.0547 0.46484 2.5-0.58984 3.2266-1.0547 0.72656-2.5 0.46094-3.2266-0.59375-3.0586-4.4375-6.8984-8.2773-11.336-11.332-1.0508-0.72656-1.3164-2.168-0.58984-3.2227zm-46.504-1.3711c-0.55078-1.1562-0.0625-2.5391 1.0938-3.0898 5.375-2.5664 11.176-4.1211 17.113-4.582 1.2773-0.10156 2.3945 0.85547 2.4961 2.1328s-0.85156 2.3945-2.1328 2.4961c-5.3711 0.41406-10.617 1.8164-15.477 4.1406-0.55469 0.26562-1.1953 0.29688-1.7734 0.09375-0.58203-0.20703-1.0547-0.63281-1.3203-1.1914zm23.434-5.5391c0.10156-1.2773 1.2188-2.2344 2.4961-2.1328 5.9375 0.46094 11.738 2.0117 17.109 4.5781 0.5625 0.26562 0.99219 0.73828 1.2031 1.3203 0.20703 0.58203 0.17578 1.2266-0.09375 1.7812-0.26562 0.55859-0.74219 0.98828-1.3281 1.1914-0.58203 0.20312-1.2266 0.16797-1.7812-0.10547-4.8594-2.3203-10.105-3.7227-15.473-4.1367-1.2773-0.10156-2.2305-1.2188-2.1328-2.4961zm-41.547 18.836c3.3789-4.9023 7.6211-9.1445 12.523-12.52 1.0547-0.72656 2.5-0.46094 3.2266 0.59375 0.72656 1.0547 0.46094 2.4961-0.59375 3.2266-4.4375 3.0547-8.2773 6.8945-11.332 11.332-0.73828 1.0312-2.1641 1.2812-3.207 0.5625s-1.3164-2.1445-0.61328-3.1992zm38.816 74.156c-0.09375 1.207-1.1016 2.1367-2.3086 2.1406-0.058594 0-0.12109 0-0.18359-0.007813-5.9375-0.46094-11.738-2.0117-17.113-4.5781-0.55859-0.26562-0.99219-0.73828-1.1992-1.3203-0.21094-0.58203-0.17578-1.2266 0.089844-1.7812 0.26562-0.55859 0.74609-0.98828 1.3281-1.1914 0.58594-0.20312 1.2266-0.16797 1.7812 0.10547 4.8594 2.3203 10.105 3.7227 15.473 4.1367 0.61328 0.046875 1.1836 0.33594 1.582 0.80469 0.40234 0.46875 0.59766 1.0742 0.55078 1.6875zm50.145-46.496c0 12.27-4.625 24.086-12.949 33.098-8.3242 9.0117-19.738 14.559-31.969 15.531h-0.18359-0.003907c-1.2461 0-2.2695-0.98438-2.3164-2.2305-0.050781-1.2461 0.89844-2.3086 2.1406-2.4023 11.051-0.92188 21.352-5.9531 28.875-14.098 7.5234-8.1445 11.723-18.812 11.77-29.898 0.015626-6.5664-1.4492-13.055-4.2812-18.977-0.55078-1.1562-0.0625-2.543 1.0938-3.0938 1.1562-0.55469 2.543-0.0625 3.0938 1.0938 3.1328 6.5469 4.75 13.719 4.7305 20.977zm-97.406-3.8594c0.45703-5.9375 2.0117-11.738 4.5781-17.109 0.55078-1.1562 1.9375-1.6484 3.0938-1.0938 1.1562 0.55078 1.6445 1.9375 1.0938 3.0938-2.3203 4.8594-3.7266 10.102-4.1406 15.473-0.097656 1.207-1.1016 2.1367-2.3125 2.1367-0.0625 0-0.12109-0.003906-0.18359-0.007813-1.207-0.09375-2.1406-1.1016-2.1367-2.3125 0-0.058593 0-0.11719 0.007812-0.17969zm7.6719 25.93c-0.55469 0.26563-1.1914 0.29688-1.7734 0.09375-0.57812-0.20703-1.0547-0.63672-1.3164-1.1914-2.5703-5.3711-4.1211-11.172-4.582-17.109-0.10156-1.2773 0.85547-2.3945 2.1328-2.4961 1.2773-0.097657 2.3906 0.85547 2.4922 2.1328 0.41797 5.3711 1.8203 10.617 4.1406 15.477 0.55078 1.1562 0.0625 2.5391-1.0938 3.0938zm16.523 17.516c-0.72656 1.0547-2.1719 1.3203-3.2227 0.59375-4.9023-3.375-9.1484-7.6172-12.523-12.52-0.72656-1.0547-0.46094-2.5 0.59375-3.2266 1.0547-0.72656 2.4961-0.46094 3.2227 0.59375 3.0586 4.4336 6.8984 8.2773 11.336 11.332 0.50781 0.34766 0.85547 0.88672 0.96484 1.4922 0.11328 0.60547-0.023438 1.2305-0.37109 1.7344z" fill-rule="evenodd"/></svg>