<svg xmlns="http://www.w3.org/2000/svg" xmlns:xlink="http://www.w3.org/1999/xlink" version="1.1" x="0px" y="0px" viewBox="0 0 24 30" enable-background="new 0 0 24 24" xml:space="preserve"><g><rect x="10.75" y="6.75" width="2.5" height="10.5"/><rect x="10.75" y="2.25" width="2.5" height="3"/><path d="M18.75,3.25c0-0.55231-0.44769-1-1-1h-3v3h4V3.25z"/><path d="M2.25,18.75V21c0,0.41406,0.33594,0.75,0.75,0.75h18c0.41406,0,0.75-0.33594,0.75-0.75v-2.25H2.25z"/><path d="M9.25,2.25h-3c-0.55231,0-1,0.44769-1,1v2h4V2.25z"/><rect x="5.25" y="6.75" width="4" height="7.5"/><rect x="5.25" y="15.75" width="4" height="1.5"/><rect x="14.75" y="6.75" width="4" height="7.5"/><rect x="14.75" y="15.75" width="4" height="1.5"/></g></svg>